<svg width="40" height="40" viewBox="0 0 40 40" fill="none" xmlns="http://www.w3.org/2000/svg">
<path d="M9.33333 21.3333H8V18.6666H9.33333C9.68696 18.6666 10.0261 18.8071 10.2761 19.0572C10.5262 19.3072 10.6667 19.6463 10.6667 20C10.6667 20.3536 10.5262 20.6927 10.2761 20.9428C10.0261 21.1928 9.68696 21.3333 9.33333 21.3333ZM18.6667 26.6666V18.6666H20C20.3536 18.6666 20.6928 18.8071 20.9428 19.0572C21.1929 19.3072 21.3333 19.6463 21.3333 20V25.3333C21.3333 25.6869 21.1929 26.0261 20.9428 26.2761C20.6928 26.5262 20.3536 26.6666 20 26.6666H18.6667Z" fill="#221F73"/>
<path fill-rule="evenodd" clip-rule="evenodd" d="M2.66675 4C2.66675 2.93913 3.08818 1.92172 3.83832 1.17157C4.58847 0.421427 5.60588 0 6.66675 0L28.5521 0L37.3334 8.78133V36C37.3334 37.0609 36.912 38.0783 36.1618 38.8284C35.4117 39.5786 34.3943 40 33.3334 40H6.66675C5.60588 40 4.58847 39.5786 3.83832 38.8284C3.08818 38.0783 2.66675 37.0609 2.66675 36V4ZM9.33342 16H5.33341V29.3333H8.00008V24H9.33342C10.3943 24 11.4117 23.5786 12.1618 22.8284C12.912 22.0783 13.3334 21.0609 13.3334 20C13.3334 18.9391 12.912 17.9217 12.1618 17.1716C11.4117 16.4214 10.3943 16 9.33342 16ZM20.0001 16H16.0001V29.3333H20.0001C21.0609 29.3333 22.0784 28.9119 22.8285 28.1618C23.5787 27.4116 24.0001 26.3942 24.0001 25.3333V20C24.0001 18.9391 23.5787 17.9217 22.8285 17.1716C22.0784 16.4214 21.0609 16 20.0001 16ZM26.6667 29.3333V16H34.6667V18.6667H29.3334V21.3333H32.0001V24H29.3334V29.3333H26.6667Z" fill="#221F73"/>
</svg>
