<svg width="50" height="50" viewBox="0 0 50 50" fill="none" xmlns="http://www.w3.org/2000/svg">
<path d="M43.75 25.4583C43.75 14.0208 34.875 6.25 25 6.25C15.2291 6.25 6.24996 13.8542 6.24996 25.5833C4.99996 26.2917 4.16663 27.625 4.16663 29.1667V33.3333C4.16663 35.625 6.04163 37.5 8.33329 37.5H10.4166V24.7917C10.4166 16.7292 16.9375 10.2083 25 10.2083C33.0625 10.2083 39.5833 16.7292 39.5833 24.7917V39.5833H22.9166V43.75H39.5833C41.875 43.75 43.75 41.875 43.75 39.5833V37.0417C44.9791 36.3958 45.8333 35.125 45.8333 33.625V28.8333C45.8333 27.375 44.9791 26.1042 43.75 25.4583Z" fill="#D80C8C"/>
<path d="M18.75 29.1667C19.9006 29.1667 20.8333 28.2339 20.8333 27.0833C20.8333 25.9327 19.9006 25 18.75 25C17.5994 25 16.6666 25.9327 16.6666 27.0833C16.6666 28.2339 17.5994 29.1667 18.75 29.1667Z" fill="#D80C8C"/>
<path d="M31.25 29.1667C32.4006 29.1667 33.3333 28.2339 33.3333 27.0833C33.3333 25.9327 32.4006 25 31.25 25C30.0994 25 29.1666 25.9327 29.1666 27.0833C29.1666 28.2339 30.0994 29.1667 31.25 29.1667Z" fill="#D80C8C"/>
<path d="M37.5 22.9792C37.0032 20.0503 35.4862 17.3916 33.2176 15.4737C30.9489 13.5558 28.0749 12.5024 25.1041 12.5C18.7916 12.5 12 17.7292 12.5416 25.9375C15.1107 24.8862 17.3797 23.2156 19.1463 21.0745C20.9129 18.9335 22.1223 16.3886 22.6666 13.6667C25.3958 19.1458 31 22.9167 37.5 22.9792Z" fill="#D80C8C"/>
</svg>
