<svg width="18" height="18" viewBox="0 0 18 18" fill="none" xmlns="http://www.w3.org/2000/svg">
<path d="M9.9375 13.0625C9.9375 13.2479 9.88252 13.4292 9.77951 13.5833C9.67649 13.7375 9.53007 13.8577 9.35877 13.9286C9.18746 13.9996 8.99896 14.0182 8.81711 13.982C8.63525 13.9458 8.4682 13.8565 8.33709 13.7254C8.20598 13.5943 8.11669 13.4273 8.08052 13.2454C8.04434 13.0635 8.06291 12.875 8.13387 12.7037C8.20482 12.5324 8.32499 12.386 8.47916 12.283C8.63333 12.18 8.81458 12.125 9 12.125C9.24864 12.125 9.4871 12.2238 9.66292 12.3996C9.83873 12.5754 9.9375 12.8139 9.9375 13.0625ZM9 4.625C7.27657 4.625 5.875 5.88672 5.875 7.4375V7.75C5.875 7.91576 5.94085 8.07473 6.05806 8.19194C6.17527 8.30915 6.33424 8.375 6.5 8.375C6.66576 8.375 6.82474 8.30915 6.94195 8.19194C7.05916 8.07473 7.125 7.91576 7.125 7.75V7.4375C7.125 6.57812 7.96641 5.875 9 5.875C10.0336 5.875 10.875 6.57812 10.875 7.4375C10.875 8.29688 10.0336 9 9 9C8.83424 9 8.67527 9.06585 8.55806 9.18306C8.44085 9.30027 8.375 9.45924 8.375 9.625V10.25C8.375 10.4158 8.44085 10.5747 8.55806 10.6919C8.67527 10.8092 8.83424 10.875 9 10.875C9.16576 10.875 9.32474 10.8092 9.44195 10.6919C9.55916 10.5747 9.625 10.4158 9.625 10.25V10.1938C11.05 9.93203 12.125 8.79531 12.125 7.4375C12.125 5.88672 10.7234 4.625 9 4.625ZM17.125 9C17.125 10.607 16.6485 12.1779 15.7557 13.514C14.8629 14.8502 13.594 15.8916 12.1093 16.5065C10.6247 17.1215 8.99099 17.2824 7.4149 16.9689C5.8388 16.6554 4.39106 15.8815 3.25476 14.7452C2.11846 13.6089 1.34463 12.1612 1.03112 10.5851C0.717618 9.00901 0.87852 7.37535 1.49348 5.8907C2.10844 4.40605 3.14985 3.1371 4.486 2.24431C5.82214 1.35152 7.39303 0.875 9 0.875C11.1542 0.877275 13.2195 1.73403 14.7427 3.25727C16.266 4.78051 17.1227 6.84581 17.125 9ZM15.875 9C15.875 7.64025 15.4718 6.31104 14.7164 5.18045C13.9609 4.04987 12.8872 3.16868 11.631 2.64833C10.3747 2.12798 8.99238 1.99183 7.65876 2.2571C6.32514 2.52237 5.10013 3.17716 4.13864 4.13864C3.17716 5.10013 2.52238 6.32513 2.2571 7.65875C1.99183 8.99237 2.12798 10.3747 2.64833 11.6309C3.16868 12.8872 4.04987 13.9609 5.18046 14.7164C6.31105 15.4718 7.64026 15.875 9 15.875C10.8227 15.8729 12.5702 15.1479 13.8591 13.8591C15.1479 12.5702 15.8729 10.8227 15.875 9Z" fill="black"/>
</svg>
