<svg width="20" height="20" viewBox="0 0 20 20" fill="none" xmlns="http://www.w3.org/2000/svg">
<path d="M10 5.36658V8.14158" stroke="#444750" stroke-width="1.25" stroke-miterlimit="10" stroke-linecap="round"/>
<path d="M10.0166 1.66663C6.94992 1.66663 4.46658 4.14996 4.46658 7.21663V8.96663C4.46658 9.53329 4.23325 10.3833 3.94158 10.8666L2.88325 12.6333C2.23325 13.725 2.68325 14.9416 3.88325 15.3416C7.86658 16.6666 12.1749 16.6666 16.1582 15.3416C17.2832 14.9666 17.7666 13.65 17.1582 12.6333L16.0999 10.8666C15.8082 10.3833 15.5749 9.52496 15.5749 8.96663V7.21663C15.5666 4.16663 13.0666 1.66663 10.0166 1.66663Z" stroke="#444750" stroke-width="1.25" stroke-miterlimit="10" stroke-linecap="round"/>
<path d="M12.775 15.6833C12.775 17.2083 11.525 18.4583 9.99998 18.4583C9.24164 18.4583 8.54164 18.1417 8.04164 17.6417C7.54164 17.1417 7.22498 16.4417 7.22498 15.6833" stroke="#444750" stroke-width="1.25" stroke-miterlimit="10"/>
<rect x="11.6667" y="0.833333" width="7.5" height="7.5" rx="3.75" fill="#F57600"/>
<rect x="11.6667" y="0.833333" width="7.5" height="7.5" rx="3.75" stroke="#FF0000" stroke-width="1.66667"/>
</svg>
